<?xml version="1.0" encoding="UTF-8"?>
<svg width="233px" height="70px" viewBox="0 0 233 70" version="1.1" xmlns="http://www.w3.org/2000/svg" xmlns:xlink="http://www.w3.org/1999/xlink">
    <!-- Generator: Sketch 47.1 (45422) - http://www.bohemiancoding.com/sketch -->
    <title>Logo</title>
    <desc>Created with Sketch.</desc>
    <defs></defs>
    <g id="Page-1" stroke="none" stroke-width="1" fill="none" fill-rule="evenodd">
        <g id="Logo" fill="#FFFFFE">
            <path d="M229.222892,17.8982308 C229.200943,17.8086074 229.178994,17.7192538 229.157313,17.6296304 C229.082365,17.5680818 229.007684,17.5062632 228.933004,17.4444446 C228.749114,17.3955836 228.565224,17.3469926 228.381334,17.2981316 C228.355102,17.312169 228.328603,17.3262064 228.302103,17.3402438 C228.237862,17.5877881 228.173621,17.8356024 228.109112,18.0834166 C228.125172,18.1087919 228.1415,18.1338973 228.157293,18.1590027 C228.341183,18.2075937 228.524538,18.2561847 228.70816,18.3050457 C228.802916,18.2883088 228.898207,18.2718419 228.992962,18.2553749 C229.056133,18.1886972 229.118768,18.1217496 229.181671,18.0548019 C229.195322,18.0027015 229.209241,17.9503312 229.222892,17.8982308 Z M228.505801,20.7178604 C228.458958,20.2386988 228.411848,19.7589974 228.363667,19.2792959 C228.326461,19.2485216 228.289255,19.2177473 228.252049,19.1872429 C228.139359,19.1570085 228.026402,19.1273139 227.913445,19.0973495 C227.887213,19.1113869 227.860981,19.1254243 227.834749,19.1391918 C227.76221,19.41967 227.689136,19.6998783 227.61633,19.9803565 C227.631587,20.1515049 227.647379,20.3226533 227.662904,20.4938017 C227.150046,20.3580168 226.636921,20.2233116 226.123527,20.0894164 C226.219889,19.9476925 226.316518,19.8059687 226.413415,19.6642448 C226.684566,18.6073899 226.955985,17.550535 227.227671,16.4936801 C227.210808,16.3225317 227.194212,16.1508433 227.177349,15.9796949 C228.100279,16.2204905 229.022942,16.4642555 229.944801,16.71099 C230.159473,17.0476178 230.373878,17.3839757 230.587212,17.7208736 C230.490583,18.0850363 230.393953,18.4494691 230.297056,18.8139018 C230.051602,18.942938 229.806147,19.0722441 229.560693,19.2015502 C229.610748,19.6126844 229.660534,20.0235485 229.709518,20.4346826 C229.778845,20.6555019 229.848172,20.8763211 229.917231,21.0971404 C229.446933,20.9699938 228.976634,20.8436571 228.505801,20.7178604 Z M231.888897,18.8068831 C231.72883,18.1349771 231.567424,17.4628012 231.404412,16.7908952 C230.906811,16.3765217 230.407605,15.963228 229.90706,15.5507441 C229.409459,15.4179286 228.911858,15.285923 228.413722,15.1549972 C227.7772,15.2659467 227.141481,15.3785159 226.506833,15.4924349 C226.037337,15.9967018 225.568913,16.5017786 225.102094,17.0076652 C224.986996,17.4649608 224.871629,17.9219864 224.756263,18.3790121 C224.925699,19.0484885 225.094064,19.717695 225.260555,20.3871714 C225.756283,20.7939863 226.250136,21.2013411 226.743186,21.6097757 C227.233827,21.7388119 227.723933,21.8689279 228.214307,21.9995838 C228.843067,21.8886343 229.472362,21.7790345 230.102727,21.6710544 C230.574631,21.1708368 231.047339,20.6714289 231.521384,20.172561 C231.643978,19.717425 231.766304,19.2620191 231.888897,18.8068831 Z M229.083435,22.9646556 C227.895778,22.6442248 226.706515,22.3291929 225.516984,22.0190202 C224.904285,21.0593473 224.286768,20.1004843 223.6647,19.143241 C223.942275,18.032666 224.220118,16.921821 224.497693,15.811246 C225.502263,15.2672964 226.510312,14.7271261 227.522377,14.1899253 C228.734392,14.505767 229.945069,14.8267378 231.154943,15.1531075 C231.774601,16.1224986 232.38971,17.0932394 233,18.06533 C232.700476,19.170236 232.400684,20.2748721 232.10116,21.3797782 C231.091237,21.9045613 230.085596,22.4328538 229.083435,22.9646556 Z M221.352289,48.1161831 C214.80291,46.3674459 208.220876,44.7860778 201.612877,43.3720788 C202.285267,42.1764695 202.961672,40.9824799 203.641557,39.78984 C205.487953,31.143336 207.334349,22.496832 209.181012,13.850328 C209.022283,12.4752018 208.859539,11.1000756 208.693048,9.72440955 C213.058765,10.658977 217.414043,11.6604922 221.757007,12.7294949 C220.889217,14.0336241 220.025978,15.339913 219.168092,16.6483615 C217.555908,23.4165522 215.943725,30.1852829 214.331809,36.9534736 C214.521052,37.2525784 214.709761,37.5514132 214.898201,37.850518 C217.189199,38.4101247 219.476717,38.9891678 221.760219,39.5884572 C223.583328,39.4742683 225.411522,39.372767 227.243731,39.2839534 C225.254667,42.2161522 223.290496,45.1602288 221.352289,48.1161831 Z M203.181163,12.5912804 C201.774551,19.6569562 200.367671,26.722632 198.960791,33.7880378 C198.965877,34.6246134 198.969624,35.4606491 198.972837,36.2972247 C196.423804,37.9498597 193.90475,39.6265202 191.415676,41.3261265 C186.642831,40.4317815 181.857941,39.6243606 177.063415,38.9030537 C175.261988,36.4794411 173.426299,34.0677062 171.555545,31.6683891 C171.828034,30.8787848 172.101327,30.0891806 172.375957,29.2998463 C173.327528,22.1575046 174.278832,15.014893 175.230403,7.87255137 C174.966747,6.51443205 174.699076,5.15631274 174.427389,3.79846337 C178.749208,4.37075774 183.065138,5.00784014 187.373306,5.70944064 C186.726345,6.93177502 186.083131,8.1551892 185.443664,9.37995313 C184.440165,15.7702136 183.436398,22.1602041 182.432899,28.5504646 C182.66497,29.2507154 182.895702,29.9509661 183.124294,30.6514868 C183.735922,31.0828672 184.345945,31.5153273 184.954094,31.9494072 C185.616045,32.0600868 186.277192,32.1723861 186.938608,32.286305 C187.654361,32.0770937 188.371452,31.869502 189.089614,31.6640699 C189.533412,31.0777381 189.978817,30.4922162 190.42556,29.9072342 C191.551385,23.5377599 192.677478,17.1682855 193.803303,10.7990812 C193.596126,9.43043381 193.385201,8.06205639 193.170261,6.69340902 C197.207813,7.40661737 201.238138,8.17678521 205.259897,9.00391254 C204.563149,10.1984421 203.870416,11.3940514 203.181163,12.5912804 Z M168.078764,10.9219085 C165.164093,10.5728629 162.246745,10.2537818 159.327523,9.96439525 C159.137476,10.1101683 158.94743,10.2559414 158.757918,10.4019845 C158.632381,11.7061138 158.506843,13.010243 158.381573,14.3143723 C158.53816,14.4941591 158.694748,14.673946 158.851068,14.8540027 C159.96806,14.9646823 161.084516,15.079951 162.200973,15.1995389 C163.531834,14.9301287 164.865907,14.6674672 166.202925,14.4110145 C165.812392,17.8277738 165.421592,21.2448031 165.030793,24.6615624 C163.817439,24.1084345 162.599535,23.5607056 161.377884,23.0181058 C160.28177,22.9006775 159.185389,22.7875683 158.08874,22.6790484 C157.903512,22.8253614 157.718819,22.9716743 157.534393,23.1179873 C157.252,26.0526157 156.969607,28.987244 156.687214,31.9216024 C157.041343,33.4373726 157.390119,34.9531428 157.733808,36.4694529 C153.733998,36.0634478 149.729637,35.7168318 145.7226,35.4301447 C146.223145,34.1524706 146.727705,32.8756063 147.23628,31.5998218 C147.883241,22.7791999 148.53047,13.958578 149.177432,5.13795613 C148.834545,3.79819342 148.487643,2.45870067 148.136458,1.11974781 C155.579858,1.6523595 163.013087,2.37501611 170.429185,3.2879876 C171.16769,6.51389215 171.882639,9.74141641 172.574034,12.9700205 C171.081767,12.2794879 169.583344,11.5967839 168.078764,10.9219085 Z M130.17251,34.6175947 C130.624339,33.321294 131.080183,32.026343 131.539774,30.731662 C131.853217,21.8924136 132.16666,13.0534351 132.479836,4.21445659 C132.086627,2.88873129 131.68967,1.5635459 131.288431,0.239170351 C135.637017,0.382513893 139.983729,0.590915426 144.327765,0.86383505 C143.803397,2.14393877 143.283044,3.42512228 142.766439,4.70711565 C142.247425,13.5363759 141.728678,22.3656362 141.209664,31.1948965 C141.545859,32.5273705 141.878306,33.8606544 142.207006,35.1939383 C138.197827,34.9420748 134.185972,34.7498703 130.17251,34.6175947 Z M124.384924,8.17516551 C123.025422,8.15113995 121.66592,8.13359319 120.306418,8.12252523 C120.130558,8.28476528 119.955233,8.44727529 119.780176,8.60978529 C119.733334,15.4891955 119.686492,22.3686057 119.639649,29.2480159 C120.20845,30.9713778 120.770292,32.6960894 121.324639,34.4221508 C116.982477,34.3735598 112.639245,34.3948858 108.297351,34.486129 C108.83537,32.7549385 109.380883,31.0248279 109.933357,29.2955271 C109.820132,22.4169267 109.706639,15.5383264 109.593414,8.65999602 C109.416751,8.49910572 109.239553,8.33848537 109.062622,8.17786501 C107.702585,8.20243048 106.342816,8.2332048 104.983046,8.27045792 C103.186169,8.89296302 101.39652,9.52680602 99.6146328,10.1719869 C100.648379,6.85213972 101.708357,3.53580185 102.794834,0.223513241 C110.693008,-0.0286202196 118.596535,-0.0674930444 126.496314,0.107164717 C127.614644,3.40838537 128.706475,6.71392523 129.772342,10.0235143 C127.98403,9.39615014 126.187957,8.7798539 124.384924,8.17516551 Z M87.670074,9.58646501 C87.5450716,9.02010955 87.4195338,8.45402404 87.2937283,7.88793853 C87.2452799,8.46590185 87.1968314,9.04413512 87.1486506,9.62209844 C86.5180173,13.1954289 85.90853,16.7698391 85.3199211,20.3453291 C85.5016698,20.4962313 85.6828832,20.6471334 85.8643642,20.7983055 C87.3890193,20.6857363 88.9142097,20.5812656 90.4399354,20.4851633 C90.5991997,20.3107755 90.7587318,20.1363877 90.9182638,19.9619999 C89.8564122,16.499619 88.7736823,13.0410174 87.670074,9.58646501 Z M93.9517813,35.0419564 C94.0427895,33.7245996 94.1354037,32.4069728 94.2293563,31.0896159 C93.9282262,30.1218446 93.6252224,29.1546131 93.3206126,28.1876516 C93.145288,28.03378 92.969428,27.8799084 92.7935681,27.7260368 C90.0448527,27.8863872 87.2974757,28.0742725 84.5517048,28.2896927 C84.3975262,28.4662402 84.2433476,28.6422477 84.0897043,28.819065 C83.9173241,29.8184206 83.7465499,30.8180461 83.5776493,31.8179415 C83.8471942,33.1104629 84.1151331,34.4032543 84.3817336,35.6963156 C80.6220242,35.9981199 76.8652592,36.3525645 73.1125092,36.7596493 C73.6259025,35.3861429 74.14572,34.0134462 74.6719615,32.6418294 C76.0582305,23.3598627 77.5970722,14.0819452 79.288754,4.81185632 C78.9348927,3.77362796 78.5794254,2.73620944 78.2218167,1.69879093 C84.2417415,1.16752899 90.2696965,0.761253984 96.3019342,0.479156054 C96.0845852,1.55517744 95.8688423,2.63119883 95.6552407,3.70749016 C98.5551902,12.6679462 101.304173,21.6564771 103.901654,30.6695735 C104.603488,31.9583156 105.299433,33.2489474 105.988687,34.5411988 C101.97469,34.648369 97.9620309,34.8154682 93.9517813,35.0419564 Z M69.7104085,37.1432485 C62.6176576,37.9733453 55.5412346,38.9915974 48.4883666,40.1980047 C48.6765395,38.836646 48.868192,37.4755572 49.0641274,36.1144684 C47.6237887,27.3899488 46.1834501,18.6651593 44.7431115,9.94063964 C44.0942765,8.72100476 43.4416942,7.50244968 42.7853645,6.28551431 C50.1634529,5.02349725 57.565364,3.95152512 64.9844061,3.06932796 C66.4584713,6.02798184 67.9095168,8.99338448 69.3375425,11.9655359 C67.761227,11.6464548 66.180361,11.336282 64.5949446,11.0350176 C61.6112139,11.3986405 58.63016,11.7941175 55.6523181,12.2206388 C55.5366842,12.4025852 55.4213179,12.5845316 55.3059516,12.766478 C55.466822,13.9013486 55.62796,15.036489 55.7888304,16.1713596 C55.983695,16.3084942 56.178292,16.4461688 56.3728889,16.5835735 C57.4869364,16.4245728 58.6012515,16.2696214 59.716102,16.1192592 C60.9484601,15.5396762 62.1853686,14.966032 63.4262922,14.397517 C63.8478743,17.810767 64.2694564,21.223747 64.6913062,24.636997 C63.3805204,24.3891827 62.0667903,24.1475773 60.7498481,23.9124507 C59.6553406,24.0601134 58.5611008,24.2120954 57.4673964,24.3683965 C57.3215156,24.5546622 57.1759025,24.7411977 57.030557,24.9274633 C57.2489767,26.4675291 57.4673964,28.0078648 57.6858161,29.5479305 C57.9698152,29.7555222 58.2535466,29.9633838 58.5370104,30.1712454 C61.3248058,29.7744187 64.1158132,29.4062067 66.9089619,29.0666093 C68.5872602,28.2848336 70.2735887,27.513586 71.9676796,26.7525965 C71.1879534,30.2144375 70.4355297,33.6781681 69.7104085,37.1432485 Z M33.5434816,43.0438194 C33.6816,41.6765218 33.824001,40.3089542 33.9701495,38.9413866 C32.9588878,33.9670148 31.9476261,28.992643 30.936632,24.0185411 C30.8905926,23.3595927 30.8448208,22.7003744 30.7995844,22.0411561 C30.6753849,22.7354679 30.5522562,23.4295098 30.4301981,24.1235517 C29.0088642,30.9416832 27.7117296,37.7614344 26.5382592,44.579296 C26.4579578,44.5976526 26.3773888,44.6160092 26.2970874,44.6346358 C22.3210997,38.9948368 18.2294781,33.407948 14.0235608,27.8774788 C13.6161653,27.3046446 13.2074314,26.7323502 12.7976268,26.1603258 C13.0390662,26.7747324 13.2802379,27.389139 13.5208743,28.0035456 C14.7371722,32.9309461 15.9532023,37.8580766 17.1695002,42.7854771 C17.887662,43.9554411 18.6018087,45.1270249 19.3124757,46.2999584 C15.8662092,47.1543507 12.4285082,48.0543645 8.99964042,49 C9.0555837,47.6264935 9.1150067,46.2521772 9.17871244,44.8775909 C6.89012385,36.3393369 4.60180293,27.8010829 2.31321434,19.262559 C1.54580107,18.114191 0.774640396,16.9674426 0,15.822314 C4.31994518,14.630484 8.65327392,13.5061415 12.9983802,12.4490166 C16.071513,16.4529176 19.0849552,20.4865131 22.038439,24.5476435 C22.2054658,24.8956092 22.3722249,25.2438449 22.5387164,25.5920807 C22.5403224,25.205512 22.5427315,24.8189434 22.5451405,24.4323747 C23.4803836,19.4849979 24.4801355,14.5370812 25.5449314,9.59024432 C29.9989799,8.64379901 34.4640028,7.76754075 38.9383943,6.96092964 C38.7280047,8.33038686 38.5216302,9.69957413 38.3192708,11.0687614 C39.8878239,19.7708752 41.4569124,28.4729889 43.0257332,37.1751027 C43.6668057,38.3893385 44.3041308,39.6046542 44.9377084,40.8215896 C41.1319596,41.507533 37.3337055,42.2482762 33.5434816,43.0438194 L33.5434816,43.0438194 Z" id="Fill-1"></path>
            <polyline id="Fill-3" points="45.1542622 70 41.154605 70 39 67.8000545 39 61.1999455 41.154605 59 45.0001524 59 45.8469567 61.5929291 44.2623981 61.0428066 42.6165156 61.0428066 41.8472995 61.4355178 41.4625581 62.2217573 41.4625581 66.7787874 41.8472995 67.5642098 42.6165156 67.9571934 44.3850461 67.9571934 46 67.4070709 45.1542622 70"></polyline>
            <path d="M53.5387897,61.8290461 L53.2306052,61.1999455 L52.6158358,60.8859399 L51.3844308,60.8859399 L50.7693948,61.1999455 L50.4625433,61.8290461 L50.4625433,67.0143596 L50.7693948,67.6429155 L51.3844308,67.9571934 L52.6158358,67.9571934 L53.2306052,67.6429155 L53.5387897,67.0143596 L53.5387897,61.8290461 Z M53.9997334,70 L50.0005332,70 L48,67.9571934 L48,61.0428066 L50.0005332,59 L53.9997334,59 L56,61.0428066 L56,67.9571934 L53.9997334,70 L53.9997334,70 Z" id="Fill-4"></path>
            <polyline id="Fill-5" points="65.2795617 70 65.5728848 68.7426159 65.5728848 63.0856131 65.6470438 62.4570573 65.4268603 63.0856131 62.9268603 69.2143052 62.8527013 69.2143052 60.3539755 63.0856131 60.132263 62.4570573 60.2066769 63.0856131 60.2066769 68.7426159 60.4997452 70 58 70 58.2945973 68.7426159 58.2945973 60.2571117 58 59 60.8674822 59 62.9268603 63.9818772 63 64.3432695 63.074159 63.9818772 65.132263 59 68 59 67.7054027 60.2571117 67.7054027 68.7426159 68 70 65.2795617 70"></polyline>
            <path d="M76.5854831,61.9072071 L76.2831126,61.2786512 L75.5284944,60.8859399 L73.7171489,60.8859399 L73.5659637,61.0428066 L73.5659637,63.7144413 L73.7171489,63.8718526 L75.5284944,63.8718526 L76.2831126,63.4788691 L76.5854831,62.8500409 L76.5854831,61.9072071 Z M76.8862841,65.9146592 L73.7171489,65.9146592 L73.5659637,66.0712535 L73.5659637,68.4286103 L73.9431421,70 L71,70 L71.3023704,68.7426159 L71.3023704,60.2571117 L71,59 L77.1886546,59 L79,60.8859399 L79,63.7144413 L76.8862841,65.9146592 L76.8862841,65.9146592 Z" id="Fill-6"></path>
            <polyline id="Fill-7" points="87.134133 70 81 70 81.313795 68.7426159 81.313795 60.2571117 81 59 84.0665213 59 83.6731189 60.5713897 83.6731189 67.7213488 83.9100327 67.9571934 86.3476009 67.9571934 88 67.4070709 87.134133 70"></polyline>
            <polyline id="Fill-8" points="95.1725873 70 89 70 89.3003318 68.7426159 89.3003318 60.2571117 89 59 95.0217691 59 95.7745555 61.3573568 94.4198009 60.8859399 91.7092481 60.8859399 91.5584299 61.0428066 91.5584299 62.9287465 91.7092481 63.0856131 92.9891154 63.0856131 94.1181645 62.6929019 94.1181645 65.3642643 92.9891154 64.9715531 91.7092481 64.9715531 91.5584299 65.1289644 91.5584299 67.7213488 91.78544 67.9571934 94.4198009 67.9571934 96 67.4070709 95.1725873 70"></polyline>
            <polyline id="Fill-9" points="105.313092 61.0428066 103.865738 61.0428066 103.704735 61.1999455 103.704735 68.585477 104.187465 70 100.812535 70 101.29415 68.585477 101.29415 61.1999455 101.133148 61.0428066 99.6869081 61.0428066 98 61.5929291 98.8832869 59 106.116713 59 107 61.5929291 105.313092 61.0428066"></polyline>
            <polyline id="Fill-10" points="115.172481 70 109 70 109.301319 68.7426159 109.301319 60.2571117 109 59 115.021691 59 115.774337 61.3573568 114.420095 60.8859399 111.709787 60.8859399 111.559258 61.0428066 111.559258 62.9287465 111.709787 63.0856131 112.989677 63.0856131 114.118515 62.6929019 114.118515 65.3642643 112.989677 64.9715531 111.709787 64.9715531 111.559258 65.1289644 111.559258 67.7213488 111.785965 67.9571934 114.420095 67.9571934 116 67.4070709 115.172481 70"></polyline>
            <path d="M128.585039,62.064346 L128.207873,61.2786512 L127.452233,60.8859399 L125.793435,60.8859399 L125.641993,61.0428066 L125.641993,67.7213488 L125.86824,67.9571934 L127.452233,67.9571934 L128.207873,67.5642098 L128.585039,66.7787874 L128.585039,62.064346 Z M128.886353,70 L123,70 L123.302361,68.7426159 L123.302361,60.2571117 L123,59 L128.886353,59 L131,61.1999455 L131,67.8000545 L128.886353,70 L128.886353,70 Z" id="Fill-11"></path>
            <path d="M138.538523,61.8290461 L138.230605,61.1999455 L137.615569,60.8859399 L136.384164,60.8859399 L135.769395,61.1999455 L135.462277,61.8290461 L135.462277,67.0143596 L135.769395,67.6429155 L136.384164,67.9571934 L137.615569,67.9571934 L138.230605,67.6429155 L138.538523,67.0143596 L138.538523,61.8290461 Z M138.999733,70 L135.000267,70 L133,67.9571934 L133,61.0428066 L135.000267,59 L138.999733,59 L141,61.0428066 L141,67.9571934 L138.999733,70 L138.999733,70 Z" id="Fill-12"></path>
            <polyline id="Fill-13" points="150.546444 64.9715531 150.546444 67.0143596 150.69763 67.9571934 148.735099 70 144.962531 70 143 67.9571934 143 61.1999455 145.113716 59 149.33984 59 150.169266 61.5929291 148.614517 61.0428066 146.547621 61.0428066 145.793003 61.4355178 145.415825 62.2217573 145.415825 67.0143596 145.716887 67.6429155 146.32032 67.9571934 147.829557 67.9571934 148.282851 67.4857765 148.282851 65.2855587 147.679418 64.0284469 151 64.0284469 150.546444 64.9715531"></polyline>
            <polyline id="Fill-14" points="161.600431 60.8859399 158.799676 60.8859399 158.643839 61.0428066 158.643839 63.2427521 158.799676 63.4001634 160.121866 63.4001634 161.288757 63.0074522 161.288757 65.6785422 160.121866 65.2855587 158.799676 65.2855587 158.643839 65.44297 158.643839 68.4286103 159.032623 70 156 70 156.310596 68.7426159 156.310596 60.2571117 156 59 162.222162 59 163 61.3573568 161.600431 60.8859399"></polyline>
            <path d="M170.538379,61.8290461 L170.230144,61.1999455 L169.615005,60.8859399 L168.383662,60.8859399 L167.76879,61.1999455 L167.460287,61.8290461 L167.460287,67.0143596 L167.76879,67.6429155 L168.383662,67.9571934 L169.615005,67.9571934 L170.230144,67.6429155 L170.538379,67.0143596 L170.538379,61.8290461 Z M170.9994,70 L166.999533,70 L165,67.9571934 L165,61.0428066 L166.999533,59 L170.9994,59 L173,61.0428066 L173,67.9571934 L170.9994,70 L170.9994,70 Z" id="Fill-15"></path>
            <path d="M180.538297,61.8290461 L180.230318,61.1999455 L179.615159,60.8859399 L178.383774,60.8859399 L177.768349,61.1999455 L177.460369,61.8290461 L177.460369,67.0143596 L177.768349,67.6429155 L178.383774,67.9571934 L179.615159,67.9571934 L180.230318,67.6429155 L180.538297,67.0143596 L180.538297,61.8290461 Z M180.9996,70 L176.999333,70 L175,67.9571934 L175,61.0428066 L176.999333,59 L180.9996,59 L183,61.0428066 L183,67.9571934 L180.9996,70 L180.9996,70 Z" id="Fill-16"></path>
            <path d="M190.584906,62.064346 L190.207678,61.2786512 L189.451653,60.8859399 L187.792322,60.8859399 L187.641379,61.0428066 L187.641379,67.7213488 L187.867401,67.9571934 L189.451653,67.9571934 L190.207678,67.5642098 L190.584906,66.7787874 L190.584906,62.064346 Z M190.886008,70 L185,70 L185.301102,68.7426159 L185.301102,60.2571117 L185,59 L190.886008,59 L193,61.1999455 L193,67.8000545 L190.886008,70 L190.886008,70 Z" id="Fill-17"></path>
        </g>
    </g>
</svg>